# xmcd CD database file
#
# Track frame offsets:
#	150
#	27685
#	50784
#	72282
#	97302
#	116531
#	138339
#	160098
#	185726
#	210283
#	239152
#	261438
#	286370
#	312761
#
# Disc length: 4403 seconds
#
# Revision: 0
# Processed by: cddbd v1.5.1PL0 Copyright (c) Steve Scherf et al.
# Submitted via: CDex 1.51
#
DISCID=de11310e
DTITLE=Various Artist - Latin Jazz-Hot and Cool
DYEAR=1900
DGENRE=Jazz
TTITLE0=Something Grand
TTITLE1=Caravan
TTITLE2=Linda's Moody
TTITLE3=Costa Del Oro
TTITLE4=Sirius
TTITLE5=Pasos Gigantes
TTITLE6=Casa Del Luz
TTITLE7=Fungii Mama
TTITLE8=Rua Dona Margarida
TTITLE9=Mr. Kenyatta
TTITLE10=Nuestro Bolero
TTITLE11=Mambo Barbara
TTITLE12=Colombaiao
TTITLE13=Soca Mi Nice
EXTD=
EXTT0=
EXTT1=
EXTT2=
EXTT3=
EXTT4=
EXTT5=
EXTT6=
EXTT7=
EXTT8=
EXTT9=
EXTT10=
EXTT11=
EXTT12=
EXTT13=
PLAYORDER=
